<?xml version="1.0" encoding="UTF-8" standalone="no"?>
<!-- Created with Inkscape (http://www.inkscape.org/) -->

<svg
   xmlns:dc="http://purl.org/dc/elements/1.1/"
   xmlns:cc="http://creativecommons.org/ns#"
   xmlns:rdf="http://www.w3.org/1999/02/22-rdf-syntax-ns#"
   xmlns:svg="http://www.w3.org/2000/svg"
   xmlns="http://www.w3.org/2000/svg"
   xmlns:sodipodi="http://sodipodi.sourceforge.net/DTD/sodipodi-0.dtd"
   xmlns:inkscape="http://www.inkscape.org/namespaces/inkscape"
   width="1024"
   height="1024"
   viewBox="0 0 1024 1024"
   id="svg2"
   version="1.1"
   inkscape:version="0.91 r13725"
   sodipodi:docname="DeadParticles.svg">
  <defs
     id="defs4">
    <inkscape:path-effect
       is_visible="true"
       id="path-effect4357"
       effect="spiro" />
    <inkscape:path-effect
       effect="spiro"
       id="path-effect4353"
       is_visible="true" />
    <inkscape:path-effect
       effect="spiro"
       id="path-effect4349"
       is_visible="true" />
    <inkscape:path-effect
       is_visible="true"
       id="path-effect4345"
       effect="spiro" />
    <inkscape:path-effect
       effect="spiro"
       id="path-effect4341"
       is_visible="true" />
    <inkscape:path-effect
       effect="spiro"
       id="path-effect4337"
       is_visible="true" />
    <inkscape:path-effect
       fuse_tolerance="0"
       vertical_pattern="true"
       prop_units="false"
       tang_offset="0"
       normal_offset="0"
       spacing="0"
       scale_y_rel="false"
       prop_scale="0.38"
       copytype="repeated_stretched"
       pattern="m -314.6102,652.62261 39.77476,0 0,-41.98447 41.98446,0"
       is_visible="true"
       id="path-effect4329"
       effect="skeletal" />
    <inkscape:path-effect
       is_visible="true"
       id="path-effect4327"
       effect="spiro" />
    <inkscape:path-effect
       effect="skeletal"
       id="path-effect4235"
       is_visible="true"
       pattern="m 35.389803,-14.564896 39.77476,0 0,-41.984461 41.984457,0"
       copytype="repeated_stretched"
       prop_scale="0.38"
       scale_y_rel="false"
       spacing="0"
       normal_offset="0"
       tang_offset="0"
       prop_units="false"
       vertical_pattern="true"
       fuse_tolerance="0" />
    <inkscape:path-effect
       effect="spiro"
       id="path-effect4233"
       is_visible="true" />
    <inkscape:path-effect
       is_visible="true"
       id="path-effect4229"
       effect="spiro" />
    <inkscape:path-effect
       effect="spiro"
       id="path-effect4225"
       is_visible="true" />
    <inkscape:path-effect
       effect="spiro"
       id="path-effect4221"
       is_visible="true" />
    <inkscape:path-effect
       effect="spiro"
       id="path-effect4198"
       is_visible="true" />
    <inkscape:path-effect
       effect="spiro"
       id="path-effect4194"
       is_visible="true" />
    <inkscape:path-effect
       is_visible="true"
       id="path-effect4190"
       effect="spiro" />
    <inkscape:path-effect
       effect="spiro"
       id="path-effect4186"
       is_visible="true" />
    <inkscape:path-effect
       is_visible="true"
       id="path-effect4182"
       effect="spiro" />
    <inkscape:path-effect
       effect="spiro"
       id="path-effect4178"
       is_visible="true" />
    <inkscape:path-effect
       is_visible="true"
       id="path-effect4174"
       effect="spiro" />
    <inkscape:path-effect
       effect="spiro"
       id="path-effect4170"
       is_visible="true" />
    <inkscape:path-effect
       is_visible="true"
       id="path-effect4166"
       effect="spiro" />
    <inkscape:path-effect
       effect="spiro"
       id="path-effect4162"
       is_visible="true" />
    <inkscape:path-effect
       is_visible="true"
       id="path-effect4158"
       effect="spiro" />
    <inkscape:path-effect
       effect="spiro"
       id="path-effect4154"
       is_visible="true" />
    <inkscape:path-effect
       effect="spiro"
       id="path-effect4144"
       is_visible="true" />
  </defs>
  <sodipodi:namedview
     id="base"
     pagecolor="#ffffff"
     bordercolor="#666666"
     borderopacity="1.0"
     inkscape:pageopacity="0.0"
     inkscape:pageshadow="2"
     inkscape:zoom="0.45254834"
     inkscape:cx="416.41907"
     inkscape:cy="531.94977"
     inkscape:document-units="px"
     inkscape:current-layer="layer1"
     showgrid="false"
     units="px"
     showborder="true"
     showguides="false"
     inkscape:window-width="1366"
     inkscape:window-height="705"
     inkscape:window-x="-8"
     inkscape:window-y="-8"
     inkscape:window-maximized="1"
     inkscape:guide-bbox="true">
    <inkscape:grid
       type="xygrid"
       id="grid4150" />
    <sodipodi:guide
       position="0,853"
       orientation="0,1"
       id="guide4307"
       inkscape:label="Top Horizontal"
       inkscape:color="rgb(0,0,255)" />
    <sodipodi:guide
       position="0,512"
       orientation="0,1"
       id="guide4311"
       inkscape:label="Middle Horizontal"
       inkscape:color="rgb(0,0,255)" />
    <sodipodi:guide
       position="0,171"
       orientation="0,1"
       id="guide4313"
       inkscape:label="Bottom Horizontal"
       inkscape:color="rgb(0,0,255)" />
    <sodipodi:guide
       position="171,1024"
       orientation="1,0"
       id="guide4315"
       inkscape:label="Left Vertical"
       inkscape:color="rgb(0,0,255)" />
    <sodipodi:guide
       position="512,1024"
       orientation="1,0"
       id="guide4317"
       inkscape:label="Middle Vertical"
       inkscape:color="rgb(0,0,255)" />
    <sodipodi:guide
       position="853,1024"
       orientation="1,0"
       id="guide4323"
       inkscape:label="Right Vertical"
       inkscape:color="rgb(0,0,255)" />
  </sodipodi:namedview>
  <metadata
     id="metadata7">
    <rdf:RDF>
      <cc:Work
         rdf:about="">
        <dc:format>image/svg+xml</dc:format>
        <dc:type
           rdf:resource="http://purl.org/dc/dcmitype/StillImage" />
        <dc:title></dc:title>
      </cc:Work>
    </rdf:RDF>
  </metadata>
  <g
     inkscape:label="Layer 1"
     inkscape:groupmode="layer"
     id="layer1"
     transform="translate(0,-28.362161)">
    <path
       style="fill:none;fill-rule:evenodd;stroke:#686868;stroke-width:20;stroke-linecap:round;stroke-linejoin:round;stroke-miterlimit:4;stroke-dasharray:none;stroke-opacity:1"
       d="m 449.75954,56.673611 c 14.22255,27.982955 34.86994,52.676099 59.89269,71.628369 12.9238,9.78851 27.03873,18.10763 38.76707,29.30073 5.86417,5.59656 11.1092,11.91592 14.93302,19.06353 3.82381,7.14761 6.1926,15.15796 6.1926,23.26412 0,8.10616 -2.36879,16.11651 -6.1926,23.26412 -3.82382,7.14761 -9.06885,13.46697 -14.93302,19.06353 -11.72834,11.1931 -25.84327,19.51222 -38.76707,29.30073 -25.02275,18.95227 -45.67014,43.64541 -59.89269,71.62837"
       id="path4152"
       inkscape:path-effect="#path-effect4154"
       inkscape:original-d="m 449.75954,56.673611 c 0,0 0,47.752249 59.89269,71.628369 59.89269,23.87613 59.89269,40.5054 59.89269,71.62838 0,31.12298 0,47.75225 -59.89269,71.62838 -59.89269,23.87612 -59.89269,71.62837 -59.89269,71.62837"
       inkscape:connector-curvature="0"
       sodipodi:nodetypes="csasc" />
    <path
       style="fill:none;fill-rule:evenodd;stroke:#686868;stroke-width:15;stroke-linecap:round;stroke-linejoin:round;stroke-miterlimit:4;stroke-dasharray:none;stroke-opacity:1"
       d="m 498.9602,280.66559 22.26086,0"
       id="path4184"
       inkscape:path-effect="#path-effect4186"
       inkscape:original-d="m 498.9602,280.66559 22.26086,0"
       inkscape:connector-curvature="0"
       sodipodi:nodetypes="cc" />
    <path
       style="fill:none;fill-rule:evenodd;stroke:#686868;stroke-width:15;stroke-linecap:round;stroke-linejoin:round;stroke-miterlimit:4;stroke-dasharray:none;stroke-opacity:1"
       d="m 458.41372,200.5498 105.46875,0"
       id="path4160"
       inkscape:path-effect="#path-effect4162"
       inkscape:original-d="m 458.41372,200.5498 105.46875,0"
       inkscape:connector-curvature="0" />
    <path
       style="fill:none;fill-rule:evenodd;stroke:#686868;stroke-width:15;stroke-linecap:round;stroke-linejoin:round;stroke-miterlimit:4;stroke-dasharray:none;stroke-opacity:1"
       d="m 500.98035,120.43402 18.25983,0"
       id="path4168"
       inkscape:path-effect="#path-effect4170"
       inkscape:original-d="m 500.98035,120.43402 18.25983,0"
       inkscape:connector-curvature="0"
       sodipodi:nodetypes="cc" />
    <path
       inkscape:connector-curvature="0"
       inkscape:original-d="m 569.47984,56.673611 c 0,0 0,47.752249 -59.89269,71.628369 -59.89269,23.87613 -59.89269,71.62838 -59.89269,71.62838 0,0 0,47.75225 59.89269,71.62838 59.89269,23.87612 59.89269,71.62837 59.89269,71.62837"
       inkscape:path-effect="#path-effect4158"
       id="path4156"
       d="m 569.47984,56.673611 c -14.22255,27.982955 -34.86994,52.676099 -59.89269,71.628369 -12.9238,9.78851 -27.03873,18.10763 -38.76707,29.30073 -5.86417,5.59656 -11.1092,11.91592 -14.93302,19.06353 -3.82381,7.14761 -6.1926,15.15796 -6.1926,23.26412 0,8.10616 2.36879,16.11651 6.1926,23.26412 3.82382,7.14761 9.06885,13.46697 14.93302,19.06353 11.72834,11.1931 25.84327,19.51222 38.76707,29.30073 25.02275,18.95227 45.67014,43.64541 59.89269,71.62837"
       style="fill:none;fill-rule:evenodd;stroke:#4e4e4e;stroke-width:20;stroke-linecap:round;stroke-linejoin:round;stroke-miterlimit:4;stroke-dasharray:none;stroke-opacity:1" />
    <path
       inkscape:connector-curvature="0"
       inkscape:original-d="m 475.60122,160.49189 32.51863,0"
       inkscape:path-effect="#path-effect4166"
       id="path4164"
       d="m 475.60122,160.49189 32.51863,0"
       style="fill:none;fill-rule:evenodd;stroke:#4e4e4e;stroke-width:15;stroke-linecap:round;stroke-linejoin:round;stroke-miterlimit:4;stroke-dasharray:none;stroke-opacity:1"
       sodipodi:nodetypes="cc" />
    <path
       style="fill:none;fill-rule:evenodd;stroke:#4e4e4e;stroke-width:15;stroke-linecap:round;stroke-linejoin:round;stroke-miterlimit:4;stroke-dasharray:none;stroke-opacity:1"
       d="m 509.23702,80.376114 42.49205,0"
       id="path4176"
       inkscape:path-effect="#path-effect4178"
       inkscape:original-d="m 509.23702,80.376114 42.49205,0"
       inkscape:connector-curvature="0"
       sodipodi:nodetypes="cc" />
    <path
       inkscape:connector-curvature="0"
       inkscape:original-d="m 508.23368,240.60773 37.73556,0"
       inkscape:path-effect="#path-effect4182"
       id="path4180"
       d="m 508.23368,240.60773 37.73556,0"
       style="fill:none;fill-rule:evenodd;stroke:#4e4e4e;stroke-width:15;stroke-linecap:round;stroke-linejoin:round;stroke-miterlimit:4;stroke-dasharray:none;stroke-opacity:1"
       sodipodi:nodetypes="cc" />
    <path
       style="fill:none;fill-rule:evenodd;stroke:#4e4e4e;stroke-width:15;stroke-linecap:round;stroke-linejoin:round;stroke-miterlimit:4;stroke-dasharray:none;stroke-opacity:1"
       d="m 498.74091,320.7235 53.54059,0"
       id="path4192"
       inkscape:path-effect="#path-effect4194"
       inkscape:original-d="m 498.74091,320.7235 c 23.20194,1.10485 53.54059,0 53.54059,0"
       inkscape:connector-curvature="0"
       sodipodi:nodetypes="cc" />
    <path
       style="fill:none;fill-rule:evenodd;stroke:#545454;stroke-width:20.15388107;stroke-linecap:round;stroke-linejoin:round;stroke-miterlimit:4;stroke-dasharray:none;stroke-opacity:1"
       d="m 894.33656,144.41363 14.29705,-4.9152 c 4.69228,13.64956 6.01164,28.47773 3.56042,42.69297 l 15.72222,2.71014 m -53.01301,-69.79177 10.06992,-11.27242 c 4.92256,4.39722 9.34076,9.35235 13.10711,14.76999 4.46842,6.42593 8.00737,13.48502 10.55334,20.89109 l 15.09132,-5.18827 m -80.1687,-35.604412 3.44068,-14.712045 c 14.04211,3.283638 27.2145,10.230402 37.97625,19.843647 l 10.62935,-11.898659 m -87.32966,7.670752 -4.09619,-14.549356 c 12.70674,-3.57721 26.24217,-4.252939 39.21422,-1.825084 1.20768,0.225915 2.41001,0.47902 3.60603,0.7587 l 3.63184,-15.529376 m -72.76986,48.936223 -10.64577,-10.73486 c 6.24818,-6.19637 13.43103,-11.448717 21.25922,-15.457663 5.01182,-2.567075 10.28264,-4.621621 15.70432,-6.14794 l -4.32375,-15.357648 m -40.08063,77.951701 -14.51054,-4.2244 c 1.22791,-4.21802 2.77862,-8.34074 4.64643,-12.31658 4.26557,-9.08139 10.17707,-17.37871 17.30495,-24.44747 l -11.2372,-11.33125 m 2.58809,87.62873 -14.75398,3.28091 c -3.13197,-14.0819 -2.58083,-28.96208 1.45171,-42.81434 l -15.31668,-4.45909 m 42.71361,74.37875 -9.44146,11.02913 c -9.49929,-10.82072 -16.28487,-24.0445 -19.40095,-38.10648 0,0 -0.006,-0.028 -0.006,-0.028 l -15.57364,3.46318 m 77.94996,37.13342 -4.29857,13.93126 c -9.89505,-1.68543 -19.66789,-4.08091 -29.2144,-7.1791 -3.38794,-2.81648 -6.54913,-5.90287 -9.45617,-9.21431 l -9.96598,11.64187 m 91.98178,-7.12983 -0.13248,14.72271 c -14.45035,0.54107 -28.95836,-0.41338 -43.21275,-2.84134 l -4.53738,14.70521 m 87.93232,-32.53995 2.7899,14.85569 c -4.99596,0.93795 -9.96668,1.99303 -14.95732,2.86457 -9.25695,1.62093 -18.62369,2.60419 -28.01477,2.95582 l -0.13985,15.54064 m 92.46953,-33.14576 -6.37986,13.70045 c -1.05595,-0.49172 -2.13227,-0.9398 -3.22579,-1.34199 -8.73351,-3.20443 -18.27327,-3.4681 -27.46863,-2.47014 l 0,0 c -4.12746,0.44608 -8.21376,1.13238 -12.28331,1.89641 l 2.94489,15.681 m 79.43372,18.92939 -15.03657,1.51745 c -0.0877,-0.86923 -0.20249,-1.73578 -0.34449,-2.59801 -10e-6,0 -10e-6,0 -10e-6,-1e-5 -1.21429,-7.36986 -4.41349,-14.40036 -9.17248,-20.15723 -4.01698,-4.85855 -9.13397,-8.7964 -14.84733,-11.45687 l -6.7343,14.46158 m 23.12569,70.32362 -8.98958,-12.14874 c 0.46822,-0.34645 0.92924,-0.70268 1.38264,-1.06849 l 0,-1e-5 c 5.81273,-4.69058 10.35143,-10.94063 13.01296,-17.91957 l 0,0 c 2.3497,-6.16263 3.22898,-12.87576 2.5669,-19.43627 l -15.87192,1.60174 m -48.63477,55.80915 5.84637,-13.93694 c 0.26858,0.11267 0.53834,0.22254 0.80925,0.32956 l 0,0 c 6.94699,2.74386 14.62241,3.61037 22.00628,2.48438 l 0,0 c 6.80789,-1.03867 13.34738,-3.76801 18.88229,-7.86355 l -9.489,-12.82366 m -72.82106,-13.29099 14.96765,-2.10115 c 1.03862,7.39668 4.06966,14.5013 8.69034,20.36975 4.44089,5.63928 10.33587,10.11917 16.95425,12.89566 l 6.17117,-14.71121"
       id="path4219"
       inkscape:path-effect="#path-effect4221;#path-effect4235"
       inkscape:original-d="M 912.60777,182.26272 C 893.17878,120.44648 871.4872,59.945253 843.4681,82.822323 815.51118,105.64861 772.47439,233.95396 772.47439,233.95396 c -30.78057,7.02358 51.78562,37.95088 100.71312,7.11709 38.63952,-24.35036 53.9099,-5.93633 54.49214,-2.31039 0.58224,3.62593 -56.15413,45.31025 -56.15413,45.31025"
       inkscape:connector-curvature="0"
       sodipodi:nodetypes="cscssc" />
    <path
       inkscape:connector-curvature="0"
       inkscape:original-d="m 1054.6076,91.1714 39.7748,0 0,-41.984461 41.9845,0"
       inkscape:path-effect="#path-effect4229"
       id="path4227"
       d="m 1054.6076,91.1714 39.7748,0 0,-41.984461 41.9845,0"
       style="fill:none;fill-rule:evenodd;stroke:#5a5a5a;stroke-width:25;stroke-linecap:round;stroke-linejoin:round;stroke-miterlimit:4;stroke-dasharray:none;stroke-opacity:1" />
    <path
       inkscape:connector-curvature="0"
       id="path4263"
       d="M 231.02881,199.8679 A 34.437567,34.437567 0 0 0 214.94907,183.92967 L 156.4264,154.92303 a 34.437567,34.437567 0 1 0 -30.58409,61.70545 l 58.52268,29.00662 a 34.437567,34.437567 0 0 0 46.66382,-45.7672 z"
       style="color:#000000;font-style:normal;font-variant:normal;font-weight:normal;font-stretch:normal;font-size:medium;line-height:normal;font-family:sans-serif;text-indent:0;text-align:start;text-decoration:none;text-decoration-line:none;text-decoration-style:solid;text-decoration-color:#000000;letter-spacing:normal;word-spacing:normal;text-transform:none;direction:ltr;block-progression:tb;writing-mode:lr-tb;baseline-shift:baseline;text-anchor:start;white-space:normal;clip-rule:nonzero;display:inline;overflow:visible;visibility:visible;opacity:1;isolation:auto;mix-blend-mode:normal;color-interpolation:sRGB;color-interpolation-filters:linearRGB;solid-color:#000000;solid-opacity:1;fill:#747474;fill-opacity:1;fill-rule:evenodd;stroke:#545454;stroke-width:25;stroke-linecap:round;stroke-linejoin:round;stroke-miterlimit:4;stroke-dasharray:none;stroke-dashoffset:0;stroke-opacity:1;color-rendering:auto;image-rendering:auto;shape-rendering:auto;text-rendering:auto;enable-background:accumulate" />
    <path
       style="color:#000000;clip-rule:nonzero;display:inline;overflow:visible;visibility:visible;opacity:1;isolation:auto;mix-blend-mode:normal;color-interpolation:sRGB;color-interpolation-filters:linearRGB;solid-color:#000000;solid-opacity:1;fill:#747474;fill-opacity:1;fill-rule:nonzero;stroke:#545454;stroke-width:25;stroke-linecap:round;stroke-linejoin:miter;stroke-miterlimit:4;stroke-dasharray:none;stroke-dashoffset:3.95840001;stroke-opacity:1;color-rendering:auto;image-rendering:auto;shape-rendering:auto;text-rendering:auto;enable-background:accumulate"
       d="m 137.64673,462.10709 a 48.61359,48.61359 0 0 0 -48.613285,48.61328 48.61359,48.61359 0 0 0 34.349615,46.46875 48.61359,48.61359 0 0 0 -2.79688,16.08008 48.61359,48.61359 0 0 0 48.61328,48.61328 48.61359,48.61359 0 0 0 48.61524,-48.61328 48.61359,48.61359 0 0 0 -1.29883,-10.89062 48.61359,48.61359 0 0 0 39.67969,-47.75586 48.61359,48.61359 0 0 0 -48.61524,-48.61329 48.61359,48.61359 0 0 0 -33.10351,13.06836 48.61359,48.61359 0 0 0 -36.83008,-16.9707 z"
       id="path4297"
       inkscape:connector-curvature="0" />
    <path
       sodipodi:nodetypes="cscac"
       inkscape:connector-curvature="0"
       inkscape:original-d="m 390.73277,747.88772 c -19.42899,-61.81624 105.75443,-5.12997 77.73533,17.7471 -27.95692,22.82629 35.25629,144.88164 35.25629,144.88164 14.65194,55.85395 -23.76253,61.75862 -4.16974,79.8067 28.62866,26.37154 115.72087,-15.62725 115.72087,-15.62725"
       inkscape:path-effect="#path-effect4327;#path-effect4329"
       id="path4325"
       d="m 437.38123,735.09552 -3.68101,14.66593 c -14.02367,-3.51986 -28.72122,-4.36397 -43.02772,-2.28922 l 2.29033,15.78884 m 88.72561,-7.29094 -9.00539,12.13302 c -1.30503,-0.96865 -2.6321,-1.90791 -3.98033,-2.8165 -10.64033,-7.16948 -22.556,-12.40121 -35.0025,-15.5252 l -3.8855,15.4807 m 84.75704,26.93769 -12.93018,7.83702 c -7.49375,-12.3641 -17.35466,-23.3008 -28.95853,-31.91371 l -9.50568,12.80707 m 68.05688,57.46463 -14.83475,2.11339 c -0.47423,-3.13786 -1.08526,-6.25511 -1.83461,-9.34032 -2.66809,-10.96238 -7.07477,-21.48144 -12.92331,-31.13106 l -13.64852,8.2724 m 40.64096,79.63141 -14.12666,-4.35582 c 3.37398,-14.06421 4.05221,-28.78407 1.89214,-43.07661 l -15.65889,2.2308 m 9.35985,85.86229 -13.92783,-6.26245 c 2.20718,-4.12511 4.85242,-8.01383 7.89534,-11.5651 4.67313,-8.54524 8.16744,-17.71844 10.43939,-27.18893 l -14.91147,-4.59781 m 4.61808,82.42036 -14.90166,2.53647 c -0.79717,-4.68287 -1.08734,-9.45017 -0.83938,-14.19199 0.50368,-9.55027 3.18545,-18.97607 7.6997,-27.413 l -14.70159,-6.61036 m 38.14734,74.14443 -10.23149,11.12705 c -3.55299,-3.26696 -6.74602,-6.92423 -9.48671,-10.89533 -5.38466,-7.80086 -8.99649,-16.81259 -10.58787,-26.1608 l -15.72952,2.67739 m 75.66773,36.28094 -1.28432,15.0614 c -7.17128,-0.6116 -14.24408,-2.3999 -20.82461,-5.309 -6.50266,-2.8743 -12.51943,-6.8408 -17.7547,-11.6546 l -10.79989,11.7453 m 82.05544,-17.70897 8.20704,12.69077 c -8.03227,5.1943 -17.21636,8.6173 -26.69512,9.8971 -4.69707,0.6345 -9.46398,0.7422 -14.18816,0.3394 l -1.35566,15.898 m 53.99763,-64.2625 14.27094,4.97852 c -3.93083,11.26871 -11.03934,21.42032 -20.28432,28.96788 -1.8357,1.4988 -3.75515,2.8946 -5.74531,4.1816 l 8.663,13.3957"
       style="fill:none;fill-rule:evenodd;stroke:#545454;stroke-width:20.15388107;stroke-linecap:round;stroke-linejoin:round;stroke-miterlimit:4;stroke-dasharray:none;stroke-opacity:1"
       inkscape:transform-center-x="7.8124293"
       inkscape:transform-center-y="6.248114" />
    <circle
       style="color:#000000;clip-rule:nonzero;display:inline;overflow:visible;visibility:visible;opacity:1;isolation:auto;mix-blend-mode:normal;color-interpolation:sRGB;color-interpolation-filters:linearRGB;solid-color:#000000;solid-opacity:1;fill:#747474;fill-opacity:1;fill-rule:nonzero;stroke:#545454;stroke-width:25;stroke-linecap:round;stroke-linejoin:miter;stroke-miterlimit:4;stroke-dasharray:none;stroke-dashoffset:3.95840001;stroke-opacity:1;color-rendering:auto;image-rendering:auto;shape-rendering:auto;text-rendering:auto;enable-background:accumulate"
       id="path4331"
       cx="853.90625"
       cy="540.64343"
       r="56.189903" />
    <path
       style="fill:none;fill-rule:evenodd;stroke:#545454;stroke-width:25;stroke-linecap:round;stroke-linejoin:round;stroke-miterlimit:4;stroke-dasharray:none;stroke-opacity:1"
       d="m 380.06663,538.42417 23.13689,-24.83738 51.5625,0 -34.375,120.3125 51.5625,0 32.3125,-119.53125 48.9375,1.5625 23.4375,84.09375 39.84375,-22.375 -33.59375,-128.125 42.96875,-21.875 27.15419,100.68926"
       id="path4335"
       inkscape:path-effect="#path-effect4337"
       inkscape:original-d="m 380.06663,538.42417 23.13689,-24.83738 c 17.18533,14.81704 23.70879,34.84924 51.5625,0 l -34.375,120.3125 51.5625,0 32.3125,-119.53125 c 16.3125,-4.00942 32.625,-3.80093 48.9375,1.5625 l 23.4375,84.09375 39.84375,-22.375 -33.59375,-128.125 42.96875,-21.875 27.15419,100.68926"
       inkscape:connector-curvature="0"
       sodipodi:nodetypes="cccccccccccc" />
    <path
       style="color:#000000;font-style:normal;font-variant:normal;font-weight:normal;font-stretch:normal;font-size:medium;line-height:normal;font-family:sans-serif;text-indent:0;text-align:start;text-decoration:none;text-decoration-line:none;text-decoration-style:solid;text-decoration-color:#000000;letter-spacing:normal;word-spacing:normal;text-transform:none;direction:ltr;block-progression:tb;writing-mode:lr-tb;baseline-shift:baseline;text-anchor:start;white-space:normal;clip-rule:nonzero;display:inline;overflow:visible;visibility:visible;opacity:1;isolation:auto;mix-blend-mode:normal;color-interpolation:sRGB;color-interpolation-filters:linearRGB;solid-color:#000000;solid-opacity:1;fill:#545454;fill-opacity:1;fill-rule:evenodd;stroke:none;stroke-width:25;stroke-linecap:round;stroke-linejoin:round;stroke-miterlimit:4;stroke-dasharray:none;stroke-dashoffset:0;stroke-opacity:1;color-rendering:auto;image-rendering:auto;shape-rendering:auto;text-rendering:auto;enable-background:accumulate"
       d="m 177.02344,744.41294 a 12.50125,12.50125 0 0 0 -10.46094,5.13672 c 1.04706,-1.39609 -1.7416,1.92604 -4.85938,5.17188 -3.11777,3.24584 -7.38575,7.61507 -12.38281,12.68945 -9.9941,10.14876 -22.92135,23.13622 -35.70312,35.92969 -25.563544,25.58696 -50.550784,50.40234 -50.550784,50.40234 a 12.50125,12.50125 0 0 0 -2.503906,14.1875 l 42.1875,89.75 a 12.50125,12.50125 0 1 0 22.625,-10.63477 L 86.927734,865.25474 c 3.779917,-3.75591 15.400796,-15.32084 29.652346,-29.54492 l 16.50195,14.61523 c -8.43568,8.77306 -15.5,16.0918 -15.5,16.0918 a 12.50125,12.50125 0 0 0 -2.29297,14.0957 l 60.9375,127.25005 a 12.50125,12.50125 0 1 0 22.54688,-10.79888 l -28.69336,-59.91601 20.18359,-10.85157 3.95313,8.17188 a 12.50125,12.50125 0 1 0 22.5039,-10.88672 l -18.03906,-37.28711 c 4.7215,-4.78011 15.90987,-16.09322 32.32031,-32.85156 9.77899,-9.98631 19.70563,-20.16964 27.51563,-28.2832 3.905,-4.05678 7.2769,-7.59071 9.86914,-10.36133 2.59224,-2.77063 3.91934,-4.05653 5.67578,-6.39844 a 12.50125,12.50125 0 0 0 -9.53906,-20.13672 12.50125,12.50125 0 0 0 -10.46094,5.13672 c 0.58456,-0.77942 -1.48238,1.70055 -3.93164,4.31836 -2.44926,2.6178 -5.76633,6.09682 -9.625,10.10547 -7.71734,8.0173 -17.61493,18.16989 -27.36719,28.1289 -19.50452,19.91802 -38.43359,39.06641 -38.43359,39.06641 a 12.50125,12.50125 0 0 0 -2.36328,14.23047 l 7.02343,14.51953 -20.09375,10.80664 -17.6914,-36.9414 c 4.02964,-4.16834 9.76626,-10.08605 19.99414,-20.78321 6.65806,-6.96355 13.46461,-14.12473 18.9414,-19.98047 5.47682,-5.85574 8.87775,-9.32854 11.51563,-12.8457 a 12.50125,12.50125 0 0 0 -9.53906,-20.13672 12.50125,12.50125 0 0 0 -10.46094,5.13672 c 0.29413,-0.39217 -4.4104,5.03543 -9.77344,10.76953 -3.49017,3.73166 -7.62201,8.09011 -11.875,12.56055 l -16.08398,-14.24805 c 11.79609,-11.81432 23.55802,-23.63321 32.83594,-33.05469 5.03712,-5.11507 9.34946,-9.5305 12.59765,-12.91211 3.24819,-3.3816 4.61114,-4.53165 6.83008,-7.49023 a 12.50125,12.50125 0 0 0 -9.53906,-20.13672 z"
       id="path4339"
       inkscape:connector-curvature="0" />
    <path
       style="color:#000000;clip-rule:nonzero;display:inline;overflow:visible;visibility:visible;opacity:1;isolation:auto;mix-blend-mode:normal;color-interpolation:sRGB;color-interpolation-filters:linearRGB;solid-color:#000000;solid-opacity:1;fill:#747474;fill-opacity:1;fill-rule:nonzero;stroke:#545454;stroke-width:25;stroke-linecap:round;stroke-linejoin:miter;stroke-miterlimit:4;stroke-dasharray:none;stroke-dashoffset:3.95840001;stroke-opacity:1;color-rendering:auto;image-rendering:auto;shape-rendering:auto;text-rendering:auto;enable-background:accumulate"
       d="m 827.22436,781.1595 a 57.794706,57.794706 0 0 0 -57.79418,57.79418 57.794706,57.794706 0 0 0 57.79418,57.79576 57.794706,57.794706 0 0 0 0.99299,-0.0348 c -9.10313,16.47735 -17.83862,34.35138 -17.44056,37.56599 0.75043,6.0601 45.65934,54.55347 51.58643,55.70387 5.92707,1.1504 65.37901,-27.08751 68.29171,-32.43662 2.91271,-5.34911 -5.25429,-71.29545 -9.38122,-75.75179 -2.42537,-2.61897 -25.67277,-8.00661 -45.56365,-11.49053 a 57.794706,57.794706 0 0 0 9.30848,-31.35189 57.794706,57.794706 0 0 0 -57.79418,-57.79419 z"
       id="path4374"
       inkscape:connector-curvature="0" />
  </g>
</svg>
