<?xml version="1.0" encoding="UTF-8" standalone="no"?>
<!-- Created with Inkscape (http://www.inkscape.org/) -->

<svg
   xmlns:dc="http://purl.org/dc/elements/1.1/"
   xmlns:cc="http://creativecommons.org/ns#"
   xmlns:rdf="http://www.w3.org/1999/02/22-rdf-syntax-ns#"
   xmlns:svg="http://www.w3.org/2000/svg"
   xmlns="http://www.w3.org/2000/svg"
   xmlns:sodipodi="http://sodipodi.sourceforge.net/DTD/sodipodi-0.dtd"
   xmlns:inkscape="http://www.inkscape.org/namespaces/inkscape"
   width="210mm"
   height="293mm"
   viewBox="0 0 744.09449 1038.189"
   id="svg2"
   version="1.1"
   inkscape:version="0.91 r13725"
   inkscape:export-filename="C:\Users\Nyan Kai\Pictures\Vector Images\Exports\PlayerCell_TypeB.png"
   inkscape:export-xdpi="12.554676"
   inkscape:export-ydpi="12.554676"
   sodipodi:docname="EnemyMainCell.svg"
   enable-background="new">
  <defs
     id="defs4">
    <inkscape:path-effect
       effect="skeletal"
       id="path-effect4535"
       is_visible="true"
       pattern="m 86.652541,-15.152288 14.408639,0 c 1.66526,0.168492 3.24978,1.028706 4.29819,2.333438 1.04841,1.304732 1.5473,3.0372864 1.35331,4.6997719 -0.15315,1.3124768 -0.72968,2.5722063 -1.62287,3.545992 -0.89319,0.973787 -2.09855,1.656734 -3.39295,1.922418 l -14.620549,0 c -1.708961,0.0019 -3.406311,-0.732863 -4.57448,-1.980231 -1.16817,-1.247369 -1.790168,-2.9892034 -1.67633,-4.694369 0.09987,-1.4959009 0.758846,-2.9479549 1.818964,-4.0080689 1.060118,-1.060115 2.512174,-1.719089 4.008076,-1.818951 z"
       copytype="repeated"
       prop_scale="1"
       scale_y_rel="false"
       spacing="0"
       normal_offset="0"
       tang_offset="0"
       prop_units="false"
       vertical_pattern="false"
       fuse_tolerance="0" />
    <inkscape:path-effect
       effect="spiro"
       id="path-effect4533"
       is_visible="true" />
    <inkscape:path-effect
       effect="skeletal"
       id="path-effect4483"
       is_visible="true"
       pattern="m 34.411766,52.857143 14.40864,0 c 1.665263,0.168492 3.249774,1.028705 4.298185,2.333437 1.04841,1.304732 1.547305,3.037287 1.353315,4.699773 -0.153149,1.312476 -0.729682,2.572206 -1.622873,3.545992 -0.893191,0.973787 -2.098551,1.656734 -3.392947,1.922418 l -14.62055,0 c -1.70896,0.0019 -3.40631,-0.732863 -4.57448,-1.980231 -1.168169,-1.247369 -1.790168,-2.989204 -1.67633,-4.694369 0.09987,-1.495901 0.758846,-2.947955 1.818964,-4.00807 1.060119,-1.060114 2.512175,-1.719089 4.008076,-1.81895 z"
       copytype="repeated"
       prop_scale="1"
       scale_y_rel="false"
       spacing="0"
       normal_offset="0"
       tang_offset="0"
       prop_units="false"
       vertical_pattern="false"
       fuse_tolerance="0" />
    <inkscape:path-effect
       effect="spiro"
       id="path-effect4461"
       is_visible="true" />
    <inkscape:path-effect
       effect="spiro"
       id="path-effect4457"
       is_visible="true" />
    <inkscape:path-effect
       effect="powerstroke"
       id="path-effect4431"
       is_visible="true"
       offset_points="6.2024729,11.202042 | 9.1795027,9.9023358 | 11.523073,11.129484"
       sort_points="true"
       interpolator_type="Linear"
       interpolator_beta="1"
       start_linecap_type="zerowidth"
       linejoin_type="miter"
       miter_limit="12.5"
       end_linecap_type="zerowidth" />
    <inkscape:path-effect
       effect="spiro"
       id="path-effect4399"
       is_visible="true" />
    <inkscape:path-effect
       effect="skeletal"
       id="path-effect4395"
       is_visible="true"
       pattern="M 6.3092747,20.756881 C 13.395349,12.767095 23.543013,7.563166 34.166415,6.4711714 45.313049,5.3253931 56.860859,8.7372446 65.594985,15.756881"
       copytype="repeated"
       prop_scale="1.76"
       scale_y_rel="true"
       spacing="10"
       normal_offset="0"
       tang_offset="0"
       prop_units="false"
       vertical_pattern="true"
       fuse_tolerance="2.2" />
    <inkscape:path-effect
       effect="skeletal"
       id="path-effect4393"
       is_visible="true"
       pattern="M 0,0 1,0"
       copytype="repeated"
       prop_scale="0.91"
       scale_y_rel="false"
       spacing="0"
       normal_offset="0"
       tang_offset="0"
       prop_units="false"
       vertical_pattern="false"
       fuse_tolerance="0" />
    <inkscape:path-effect
       effect="rough_hatches"
       id="path-effect4391"
       is_visible="true"
       direction="335.82785,460.47884 , 17.505983,0"
       dist_rdm="0;1"
       growth="0"
       do_bend="true"
       bender="335.82785,465.47884 , 5,0"
       bottom_edge_variation="16.296455;1"
       top_edge_variation="16.296455;1"
       bottom_tgt_variation="0;1"
       top_tgt_variation="0;1"
       scale_bf="1"
       scale_bb="1"
       scale_tf="1"
       scale_tb="1"
       top_smth_variation="0;1"
       bottom_smth_variation="0;1"
       fat_output="true"
       stroke_width_top="1"
       stroke_width_bottom="1"
       front_thickness="1"
       back_thickness="0.25" />
    <inkscape:path-effect
       effect="knot"
       id="path-effect4389"
       is_visible="true"
       interruption_width="3"
       prop_to_stroke_width="true"
       add_stroke_width="true"
       add_other_stroke_width="true"
       switcher_size="15"
       crossing_points_vector="" />
    <inkscape:path-effect
       effect="spiro"
       id="path-effect4378"
       is_visible="true" />
    <inkscape:path-effect
       effect="spiro"
       id="path-effect4156"
       is_visible="true" />
    <inkscape:path-effect
       effect="spiro"
       id="path-effect4201"
       is_visible="true" />
    <inkscape:path-effect
       effect="spiro"
       id="path-effect4168"
       is_visible="true" />
    <inkscape:path-effect
       effect="spiro"
       id="path-effect4160"
       is_visible="true" />
    <inkscape:path-effect
       effect="spiro"
       id="path-effect4152"
       is_visible="true" />
    <inkscape:path-effect
       effect="spiro"
       id="path-effect4140"
       is_visible="true" />
    <filter
       inkscape:collect="always"
       style="color-interpolation-filters:sRGB"
       id="filter4296"
       inkscape:label="filter4296">
      <feBlend
         inkscape:collect="always"
         mode="screen"
         id="feBlend4298"
         in2="SourceAlpha"
         in="SourceGraphic" />
    </filter>
    <inkscape:path-effect
       effect="spiro"
       id="path-effect4201-2"
       is_visible="true" />
  </defs>
  <sodipodi:namedview
     id="base"
     pagecolor="#000000"
     bordercolor="#666666"
     borderopacity="1.0"
     inkscape:pageopacity="0"
     inkscape:pageshadow="2"
     inkscape:zoom="0.7"
     inkscape:cx="386.05709"
     inkscape:cy="575.3624"
     inkscape:document-units="px"
     inkscape:current-layer="layer1"
     showgrid="false"
     inkscape:window-width="1366"
     inkscape:window-height="705"
     inkscape:window-x="-8"
     inkscape:window-y="-8"
     inkscape:window-maximized="1"
     inkscape:snap-grids="true"
     inkscape:snap-page="false" />
  <metadata
     id="metadata7">
    <rdf:RDF>
      <cc:Work
         rdf:about="">
        <dc:format>image/svg+xml</dc:format>
        <dc:type
           rdf:resource="http://purl.org/dc/dcmitype/StillImage" />
        <dc:title />
      </cc:Work>
    </rdf:RDF>
  </metadata>
  <g
     inkscape:label="Body"
     inkscape:groupmode="layer"
     id="layer1"
     transform="translate(0,-14.173228)"
     style="filter:url(#filter4296)">
    <path
       sodipodi:type="star"
       style="fill:none;fill-opacity:1;stroke:#ffc1c4;stroke-width:28.02728653;stroke-linecap:round;stroke-linejoin:bevel;stroke-miterlimit:4;stroke-dasharray:none;stroke-dashoffset:0;stroke-opacity:1"
       id="path4203"
       sodipodi:sides="9"
       sodipodi:cx="366.9895"
       sodipodi:cy="516.98132"
       sodipodi:r1="253.37189"
       sodipodi:r2="126.68594"
       sodipodi:arg1="0.73480845"
       sodipodi:arg2="1.0838743"
       inkscape:flatsided="false"
       inkscape:rounded="0.1"
       inkscape:randomized="0"
       d="m 554.9811,686.85325 c -9.46275,10.47212 -116.24049,-64.51389 -128.71425,-57.90977 -12.47376,6.60412 -10.47876,137.0664 -24.459,139.00596 -13.98024,1.93956 -47.57665,-124.13846 -61.37715,-127.09738 -13.8005,-2.95893 -96.13178,98.26333 -108.08799,90.7628 -11.95621,-7.50053 43.34883,-125.67726 34.679,-136.81472 -8.66983,-11.13746 -136.80367,13.48177 -141.14141,0.0507 -4.33774,-13.43104 113.99091,-68.41027 114.50846,-82.51492 0.51754,-14.10465 -113.46361,-77.60807 -108.1532,-90.6851 5.31041,-13.07702 131.29539,20.86664 140.75814,10.39452 9.46276,-10.47212 -37.03265,-132.38423 -24.5589,-138.98835 12.47376,-6.60411 87.16529,100.37982 101.14553,98.44025 13.98024,-1.93956 56.72628,-125.21633 70.52678,-122.2574 13.80049,2.95893 2.24957,132.92416 14.20579,140.4247 11.95621,7.50053 123.94236,-59.45833 132.61219,-48.32087 8.66983,11.13746 -83.71873,103.27182 -79.38099,116.70286 4.33775,13.43105 133.16444,34.1209 132.64689,48.22555 -0.51754,14.10465 -130.51411,25.29744 -135.82452,38.37446 -5.31041,13.07703 80.07739,111.73457 70.61463,122.20669 z"
       inkscape:transform-center-x="14.655158"
       inkscape:transform-center-y="-7.3366917"
       transform="matrix(0.92154388,0,0,0.89439403,32.867342,61.914111)"
       inkscape:export-filename="C:\Users\Nyan Kai\Pictures\Vector Images\Exports\EnemyMainCell.png"
       inkscape:export-xdpi="95.704697"
       inkscape:export-ydpi="95.704697" />
    <circle
       style="fill:#a74140;fill-opacity:1;stroke:#ffc1c4;stroke-width:25;stroke-linecap:round;stroke-linejoin:round;stroke-miterlimit:4;stroke-dasharray:none;stroke-dashoffset:0;stroke-opacity:1;"
       id="path4136"
       cx="375"
       cy="527.36218"
       r="204.39662"
       inkscape:export-filename="C:\Users\Nyan Kai\Pictures\Vector Images\Exports\EnemyMainCell.png"
       inkscape:export-xdpi="95.704697"
       inkscape:export-ydpi="95.704697" />
    <path
       style="fill:#34243b;fill-opacity:1;fill-rule:evenodd;stroke:#ffc1c4;stroke-width:12.5;stroke-linecap:round;stroke-linejoin:round;stroke-miterlimit:4;stroke-dasharray:none;stroke-opacity:1"
       d="m 453.50059,645.67793 c 4.97957,3.16899 11.32796,4.09763 17.00659,2.48774 5.67862,-1.6099 10.59508,-5.73214 13.17061,-11.043 2.57552,-5.31086 2.76821,-11.72392 0.51617,-17.17983 -2.25203,-5.4559 -6.91214,-9.86587 -12.48387,-11.81379 -3.35648,-1.17345 -7.01347,-1.47549 -10.51699,-0.86864 -3.50352,0.60686 -6.84588,2.12129 -9.61214,4.35527 -2.76627,2.23399 -4.95037,5.18264 -6.28117,8.4799 -1.3308,3.29725 -1.80537,6.93588 -1.36481,10.46417 -2.6383,-0.92992 -5.54915,-1.07088 -8.26496,-0.40022 -2.7158,0.67065 -5.22643,2.1504 -7.12857,4.20156 -1.90214,2.05115 -3.1887,4.66605 -3.65301,7.42463 -0.4643,2.75859 -0.10462,5.65057 1.02127,8.21138 1.27115,2.8912 3.51922,5.34246 6.28991,6.85841 2.77069,1.51596 6.04725,2.08745 9.16755,1.59899 3.1203,-0.48846 6.06546,-2.03393 8.24033,-4.32408 2.17487,-2.29015 3.5663,-5.31114 3.89309,-8.45249 z"
       id="path4199"
       inkscape:path-effect="#path-effect4201"
       inkscape:original-d="m 453.50059,645.67793 c 50.09938,-14.18736 37.42604,-56.15944 18.2095,-37.54888 -21.18505,20.93847 -27.77511,22.4307 -27.77511,22.4307 0,0 -6.83386,-10.30866 -18.02527,19.43735 -11.19186,29.74583 27.59088,-4.31917 27.59088,-4.31917 z"
       inkscape:connector-curvature="0"
       sodipodi:nodetypes="cccsc"
       inkscape:export-filename="C:\Users\Nyan Kai\Pictures\Vector Images\Exports\EnemyMainCell.png"
       inkscape:export-xdpi="95.704697"
       inkscape:export-ydpi="95.704697" />
    <path
       style="fill:#ffc1c4;fill-opacity:1;fill-rule:evenodd;stroke:none;stroke-width:12.5;stroke-linecap:round;stroke-linejoin:round;stroke-miterlimit:4;stroke-dasharray:none;stroke-opacity:1"
       d="m 423.96646,381.59662 c 5.94844,-1.0097 12.00839,0.16909 16.84575,2.99805 4.84772,2.83502 8.46416,7.29912 10.20892,12.18441 1.74841,4.89555 1.65197,10.21205 -0.0164,14.68257 -1.67169,4.47944 -4.89144,8.16036 -8.69074,10.29206 -4.9904,3.04143 -11.4854,3.94125 -19.34886,4.59145 -3.77163,0.31531 -8.24145,0.65149 -12.63336,1.39414 -4.46376,0.7548 -9.34429,1.99968 -14.13977,4.38225 -2.28863,1.16148 -4.45433,2.54109 -6.47092,4.10403 -7.48074,6.54348 -12.65185,15.85283 -13.79728,25.98169 -0.63896,6.30201 0.26323,12.72438 2.63952,18.57501 2.37654,5.85153 6.21065,11.0681 11.08894,15.04167 0.9422,0.76993 1.91432,1.48587 2.90979,2.14925 4.39027,3.24048 9.38192,5.47043 14.48121,6.76185 6.20306,1.57179 12.53079,1.77516 18.51723,1.09352 6.24506,-0.8022 12.09797,-2.54857 17.51428,-4.68145 4.78583,-2.2653 9.28168,-4.88499 13.42555,-7.46397 8.98684,-5.59494 16.17079,-10.75244 24.43865,-14.59369 7.97339,-3.71115 16.43928,-5.66734 24.16348,-4.27207 7.68266,1.37557 15.01593,6.38246 19.21844,13.56763 4.19191,7.16706 5.20379,16.51313 2.3061,24.84752 -2.89029,8.31312 -9.69444,15.53474 -18.37755,18.93073 -8.6609,3.38731 -19.09258,2.88626 -27.75928,-1.73842 8.04798,5.58911 18.82364,7.62061 28.81135,5.01008 9.96247,-2.60393 18.92178,-9.79354 23.65636,-19.52612 4.72274,-9.70824 5.10927,-21.7114 0.60235,-32.09873 -4.4958,-10.36173 -13.74287,-18.81929 -25.03938,-22.30751 -11.36772,-3.51103 -23.39,-1.85919 -33.79373,1.56572 -10.11546,3.32509 -19.82672,8.61262 -28.13182,12.52972 -4.11228,1.93867 -8.07447,3.64906 -11.99969,4.96841 -4.13544,1.80269 -8.14044,3.10902 -12.11297,3.77024 -3.77892,0.7184 -7.48918,0.82609 -10.91131,0.23667 -2.79934,-0.48089 -5.43302,-1.45035 -7.66944,-2.83692 -0.45455,-0.34933 -0.88477,-0.71463 -1.28982,-1.09474 -2.10026,-1.98569 -3.69161,-4.52491 -4.57067,-7.25425 -0.8793,-2.72927 -1.07375,-5.69183 -0.57635,-8.49686 0.66585,-4.39435 3.16296,-8.67219 6.81007,-11.63213 0.80777,-0.85059 1.68994,-1.62217 2.63155,-2.298 2.11999,-1.55634 4.73429,-2.79801 8.01816,-3.89304 3.33531,-1.11217 6.86962,-1.92358 10.92998,-2.89429 7.7973,-1.85742 17.59636,-4.36884 25.21769,-10.92821 5.74694,-5.13352 9.41464,-12.1203 10.48348,-19.3138 1.07105,-7.20845 -0.49361,-14.50369 -4.06068,-20.35742 -3.5746,-5.86611 -9.11116,-10.20088 -15.20547,-12.27507 -6.10736,-2.07863 -12.70642,-1.86927 -18.32337,0.29802 z"
       id="path4154"
       inkscape:original-d="m 423.96646,381.59662 c 0,0 61.3942,78.46531 22.72679,45.90268 -110.91891,-93.40712 -53.70445,-25.74232 -45.14391,14.04169 8.56052,39.78401 -10.54237,29.12243 -5.41717,46.69182 5.62265,19.27474 83.25539,-23.96549 110.67949,-20.07283 27.4241,3.89264 -26.32149,62.26487 -26.32149,62.26487"
       inkscape:connector-curvature="0"
       sodipodi:nodetypes="cscssc"
       inkscape:path-effect="#path-effect4156;#path-effect4431"
       inkscape:export-filename="C:\Users\Nyan Kai\Pictures\Vector Images\Exports\EnemyMainCell.png"
       inkscape:export-xdpi="95.704697"
       inkscape:export-ydpi="95.704697" />
    <path
       style="fill:#34243b;fill-opacity:1;fill-rule:evenodd;stroke:#ffc1c4;stroke-width:12.5;stroke-linecap:round;stroke-linejoin:round;stroke-miterlimit:4;stroke-dasharray:none;stroke-opacity:1;filter:url(#filter4296)"
       d="m 301.32291,420.77288 c 4.97957,3.16899 11.32796,4.09763 17.00659,2.48774 5.67862,-1.6099 10.59508,-5.73214 13.17061,-11.043 2.57552,-5.31086 2.76821,-11.72392 0.51617,-17.17983 -2.25203,-5.4559 -6.91214,-9.86587 -12.48387,-11.81379 -3.35648,-1.17345 -7.01347,-1.47549 -10.51699,-0.86864 -3.50352,0.60686 -6.84588,2.12129 -9.61214,4.35527 -2.76627,2.23399 -4.95037,5.18264 -6.28117,8.4799 -1.3308,3.29725 -1.80537,6.93588 -1.36481,10.46417 -2.6383,-0.92992 -5.54915,-1.07088 -8.26496,-0.40022 -2.7158,0.67065 -5.22643,2.1504 -7.12857,4.20156 -1.90214,2.05115 -3.1887,4.66605 -3.65301,7.42463 -0.4643,2.75859 -0.10462,5.65057 1.02127,8.21138 1.27115,2.8912 3.51922,5.34246 6.28991,6.85841 2.77069,1.51596 6.04725,2.08745 9.16755,1.59899 3.1203,-0.48846 6.06546,-2.03393 8.24033,-4.32408 2.17487,-2.29015 3.5663,-5.31114 3.89309,-8.45249 z"
       id="path4199-3"
       inkscape:path-effect="#path-effect4201-2"
       inkscape:original-d="m 301.32291,420.77288 c 50.09938,-14.18736 37.42604,-56.15944 18.2095,-37.54888 -21.18505,20.93847 -27.77511,22.4307 -27.77511,22.4307 0,0 -6.83386,-10.30866 -18.02527,19.43735 -11.19186,29.74583 27.59088,-4.31917 27.59088,-4.31917 z"
       inkscape:connector-curvature="0"
       sodipodi:nodetypes="cccsc"
       inkscape:export-filename="C:\Users\Nyan Kai\Pictures\Vector Images\Exports\EnemyMainCell.png"
       inkscape:export-xdpi="95.704697"
       inkscape:export-ydpi="95.704697"
       transform="matrix(-0.95266529,0.30402114,-0.30402114,-0.95266529,742.01653,705.3405)" />
    <path
       style="fill:#34243b;fill-opacity:1;fill-rule:evenodd;stroke:none;stroke-width:1px;stroke-linecap:butt;stroke-linejoin:miter;stroke-opacity:1"
       d="m 236.71624,553.84838 c -5.59774,-1.38478 -10.83722,-4.05221 -15.25159,-7.78135 -1.29756,-1.29733 -2.01394,-3.01756 -2.00289,-4.64368 0.001,-0.17597 0.0114,-0.35035 0.0298,-0.52261 0.18887,-1.77235 1.2472,-3.22559 2.6582,-4.1269 1.1046,-0.70558 2.43542,-1.09282 3.65637,-1.1816 0.0248,-0.002 0.0496,-0.003 0.0744,-0.005 0,0 0,0 0,0 1.19624,-0.0736 2.34348,0.13547 3.26075,0.60002 2.90879,2.55823 6.49098,4.45039 10.25883,5.44566 1.29659,0.34056 2.5085,1.29594 3.36329,2.63165 0.84645,1.3227 1.39042,3.12076 1.18931,4.80074 -0.17884,1.49398 -0.94625,2.90359 -2.2877,3.82957 -1.33702,0.92291 -3.16055,1.29185 -4.94868,0.95355 z m -23.9317,-18.52906 c -2.71796,-5.07668 -4.25704,-10.75323 -4.44159,-16.54393 0.0494,-0.95291 0.29037,-1.87697 0.68786,-2.69706 0.4486,-0.91839 1.08278,-1.68359 1.83916,-2.22897 1.44328,-1.04067 3.23133,-1.22596 4.84498,-0.77912 1.26328,0.34982 2.44033,1.08108 3.3204,1.93251 0.50087,0.48458 0.92027,1.02172 1.23805,1.56972 0.24334,0.42339 0.42936,0.86103 0.54892,1.30483 0.0365,3.85743 1.0418,7.77629 2.8323,11.24913 0.61777,1.19415 0.72095,2.73885 0.29987,4.27048 -0.41709,1.51707 -1.39142,3.12159 -2.7758,4.09368 -1.23064,0.86414 -2.79191,1.23527 -4.37614,0.85947 -1.57925,-0.37462 -3.07254,-1.47882 -4.01801,-3.03074 z m -2.26218,-30.17652 c 1.94539,-5.41434 5.12405,-10.36787 9.31841,-14.3922 0.17022,-0.13801 0.34635,-0.26777 0.52742,-0.38885 1.51219,-1.0028 3.28187,-1.35415 4.82491,-1.01835 1.73678,0.37797 3.07162,1.58233 3.81953,3.08086 0.58551,1.17316 0.82925,2.53745 0.78248,3.76196 -0.0469,1.22881 -0.38449,2.37936 -0.94758,3.25463 -0.0189,0.0174 -0.0378,0.0349 -0.0566,0.0523 -2.81298,2.57874 -5.01524,5.92747 -6.38401,9.56653 -0.47252,1.26156 -1.5518,2.3769 -2.97323,3.09133 -1.40823,0.70778 -3.25216,1.05588 -4.90089,0.67627 -1.4651,-0.33733 -2.78559,-1.24969 -3.5674,-2.67635 -0.77946,-1.42238 -0.96088,-3.26809 -0.44304,-5.00818 z m 20.89463,-21.88503 c 4.88392,-2.00483 10.18316,-2.98364 15.52284,-2.79785 0.47394,0.0198 0.94657,0.0483 1.4177,0.0852 2.01013,0.32908 3.71057,1.48593 4.59122,3.01441 0.88248,1.53163 0.90215,3.32844 0.30554,4.89211 -0.46756,1.22548 -1.30806,2.32409 -2.25208,3.11315 -0.94659,0.7912 -2.03759,1.31018 -3.07855,1.47662 -0.4814,-0.0447 -0.9628,-0.0743 -1.44349,-0.0884 -3.36195,-0.13402 -6.80873,0.49122 -10.00037,1.75001 -1.25373,0.49648 -2.80764,0.44473 -4.29247,-0.1319 -1.47132,-0.57139 -2.96379,-1.70836 -3.7854,-3.18813 -0.72983,-1.31448 -0.93628,-2.90667 -0.40192,-4.44212 0.53283,-1.53105 1.77931,-2.90167 3.41698,-3.68318 z m 30.13553,0.66886 c 2.35866,1.0536 4.61058,2.32595 6.72157,3.7907 2.50065,1.73643 4.8016,3.70293 6.89093,5.85088 1.22676,1.50544 1.73406,3.43057 1.4189,5.14584 -0.31556,1.71743 -1.42543,3.13533 -2.87614,3.97676 -1.13921,0.66076 -2.48789,0.97737 -3.74335,0.95797 -1.25826,-0.0195 -2.45965,-0.37366 -3.3983,-0.99115 -1.64156,-1.75372 -3.44083,-3.32222 -5.38272,-4.64405 -1.40682,-0.95856 -2.89321,-1.80555 -4.43115,-2.5194 -1.26036,-0.58295 -2.31182,-1.76538 -2.91105,-3.25126 -0.59418,-1.47337 -0.76688,-3.33836 -0.23425,-4.9448 0.47291,-1.42631 1.50178,-2.65528 2.97791,-3.31282 1.47174,-0.65558 3.30162,-0.69222 4.96765,-0.0587 z m 21.43253,20.16509 c 2.61295,4.75166 4.51348,9.74685 5.82329,14.84933 0.29363,1.82454 -0.19287,3.68117 -1.2777,5.01138 -1.08542,1.33095 -2.72076,2.0874 -4.39605,2.16536 -1.31853,0.0613 -2.65687,-0.28858 -3.76034,-0.92931 -1.10471,-0.64146 -1.99131,-1.58162 -2.51293,-2.64513 -1.00513,-4.26026 -2.49123,-8.30751 -4.58546,-11.99941 -0.0696,-0.12231 -0.13405,-0.24735 -0.19342,-0.37483 0,0 0,0 0,0 -0.55095,-1.21157 -0.65036,-2.69157 -0.26355,-4.11644 0.42451,-1.56374 1.45966,-3.11898 2.8904,-4.03858 1.266,-0.81371 2.83682,-1.12985 4.38085,-0.76341 1.51981,0.36069 2.9366,1.37232 3.85834,2.78359 0,0 0,0 0,0 0.0123,0.0191 0.0245,0.0382 0.0366,0.0575 z m 7.89556,27.23808 c 0.38636,4.53253 0.39606,9.06372 0.11029,13.50266 -0.0375,0.63862 -0.0798,1.27567 -0.12657,1.91118 -0.29765,1.74145 -1.30951,3.30347 -2.72004,4.23866 -1.4109,0.93543 -3.18629,1.2257 -4.81407,0.84515 -1.28385,-0.30015 -2.47019,-1.00772 -3.34759,-1.96583 -0.87743,-0.95813 -1.4502,-2.16985 -1.62239,-3.41031 0.0581,-0.77313 0.10787,-1.54527 0.14852,-2.3165 0.17649,-3.80914 0.16136,-7.62913 -0.11867,-11.37793 -0.11911,-1.56901 0.44684,-3.2066 1.53438,-4.46517 1.08382,-1.25426 2.7139,-2.15465 4.4108,-2.31384 1.49752,-0.14049 3.0376,0.29313 4.25223,1.2716 1.21225,0.97655 2.0542,2.46511 2.29311,4.08033 z m -1.36982,27.33147 c -0.72474,4.8925 -1.61077,9.70109 -2.50837,14.44175 -0.47707,1.61266 -1.62003,3.00568 -3.09763,3.79107 -1.47667,0.7849 -3.27512,0.9562 -4.87365,0.45867 -1.26345,-0.39323 -2.39494,-1.19423 -3.18695,-2.25733 -0.79164,-1.06257 -1.23762,-2.37851 -1.25792,-3.69853 0.90755,-4.78339 1.7957,-9.50224 2.50805,-14.17325 0.24728,-1.63402 1.19873,-3.15436 2.57427,-4.12391 1.3733,-0.96796 3.17643,-1.38819 4.85201,-1.08101 1.47472,0.27035 2.83574,1.09616 3.75226,2.31144 0.91524,1.21357 1.36521,2.78969 1.23793,4.3311 z m -4.60479,25.70331 c -0.79073,4.64612 -1.4945,9.27081 -1.96079,13.84238 -0.32833,1.56181 -1.31211,3.00006 -2.67903,3.92381 -1.36518,0.92258 -3.12561,1.33656 -4.77152,1.05327 -1.30368,-0.22437 -2.52739,-0.87796 -3.44099,-1.87066 -0.9126,-0.9916 -1.49799,-2.30473 -1.63833,-3.68448 0.4706,-5.08804 1.22086,-10.09773 2.09349,-14.99596 0.0667,-0.37695 0.16904,-0.74651 0.30339,-1.10346 0.46993,-1.27121 1.34401,-2.38055 2.46912,-3.10727 1.44077,-0.93059 3.27041,-1.21971 4.92632,-0.79329 1.45353,0.37431 2.75941,1.28948 3.61053,2.51741 0.71845,1.03653 1.10794,2.28834 1.11731,3.53171 0.003,0.22937 -0.006,0.45866 -0.0295,0.68654 z m -2.54684,24.7016 c 0.009,3.70796 0.26389,7.36183 0.85208,10.94351 0.11318,0.7294 0.24018,1.45697 0.38075,2.18226 0.12065,1.5 -0.38372,3.10977 -1.39113,4.38998 -1.00618,1.27864 -2.5361,2.24597 -4.18473,2.50917 -1.30647,0.20857 -2.67657,-0.0208 -3.86004,-0.70017 -1.18229,-0.67867 -2.14832,-1.79245 -2.69494,-3.13103 -0.22543,-1.09999 -0.426,-2.20594 -0.60115,-3.31699 -0.62217,-4.14501 -0.91701,-8.27344 -0.96182,-12.36902 -0.0219,-1.82997 0.74475,-3.61089 2.03624,-4.78044 1.29232,-1.17031 3.06377,-1.69449 4.76136,-1.49082 1.48618,0.1783 2.90288,0.90462 3.91917,1.95319 1.01724,1.04953 1.6419,2.42618 1.74421,3.81036 z m 4.09704,23.18736 c 1.54599,4.08983 3.51867,8.03111 5.86334,11.73673 0.66505,1.36384 0.77991,3.05435 0.30201,4.61589 -0.47722,1.55934 -1.55899,3.01291 -3.00413,3.8519 -1.1453,0.66492 -2.5073,0.9441 -3.85607,0.7389 -1.3474,-0.20499 -2.64893,-0.89116 -3.64027,-1.93492 -2.87587,-4.45614 -5.29338,-9.20776 -7.19539,-14.16383 -0.67361,-1.74989 -0.5685,-3.73571 0.25818,-5.29606 0.82827,-1.56334 2.3336,-2.63006 4.007,-2.98732 1.46053,-0.31181 3.04035,-0.0905 4.34012,0.53571 1.30329,0.62793 2.35379,1.67201 2.92521,2.903 z m 12.18041,20.13724 c 2.90512,3.27252 6.13845,6.23964 9.64529,8.81422 0.44746,0.41228 0.82776,0.90201 1.13215,1.44499 0.45189,0.80976 0.7422,1.7485 0.81846,2.72268 0.12696,1.62189 -0.33995,3.37093 -1.37216,4.68311 -0.81803,1.03992 -1.98038,1.80131 -3.31232,2.1048 -0.86973,0.19817 -1.79881,0.19729 -2.70838,-8.7e-4 -0.47892,-0.10522 -0.95004,-0.26478 -1.40054,-0.47682 -4.32252,-3.12105 -8.28808,-6.69908 -11.83952,-10.64306 -1.25588,-1.39183 -1.86788,-3.28111 -1.65476,-5.03339 0.21347,-1.7552 1.23613,-3.29352 2.67053,-4.22906 1.25248,-0.81688 2.80749,-1.17747 4.24782,-1.05693 1.44395,0.12083 2.79988,0.72316 3.77343,1.67033 z m 18.56099,14.2526 c 3.90659,1.94607 8.03019,3.48675 12.26997,4.60166 1.41556,0.54515 2.65136,1.70427 3.3652,3.17321 0.71284,1.46689 0.91064,3.26818 0.42369,4.86703 -0.38589,1.26705 -1.19316,2.3992 -2.32045,3.16747 -1.12617,0.7675 -2.54636,1.15128 -3.98309,1.06185 -5.14065,-1.30547 -10.14804,-3.14032 -14.91683,-5.48326 -1.68541,-0.82592 -2.95977,-2.35487 -3.41374,-4.06199 -0.45486,-1.71051 -0.0733,-3.51549 0.9133,-4.91381 0.86101,-1.22026 2.17128,-2.13016 3.54912,-2.5533 1.38167,-0.4243 2.8594,-0.37243 4.11283,0.14114 z m 22.62239,6.45005 c 4.36117,0.42025 8.75781,0.39841 13.0891,-0.0859 1.50732,-5.7e-4 3.06908,0.63226 4.26277,1.73953 1.1918,1.10552 2.0344,2.70942 2.16473,4.37407 0.10333,1.31981 -0.23595,2.66705 -1.0101,3.79219 -0.77323,1.1238 -1.96295,1.99574 -3.33985,2.4313 -5.2819,0.64024 -10.61745,0.71328 -15.90132,0.24043 -1.86644,-0.1651 -3.60047,-1.13263 -4.6374,-2.56143 -1.03868,-1.43119 -1.33753,-3.25437 -0.92421,-4.91654 0.36089,-1.45134 1.2542,-2.7747 2.39174,-3.6675 1.14041,-0.89505 2.54484,-1.37738 3.90454,-1.34612 z"
       id="path4455"
       inkscape:path-effect="#path-effect4457;#path-effect4483"
       inkscape:original-d="m 243.98773,548.64271 c 0,0 -14.78608,-13.81233 2.72227,-61.9362 37.76687,-103.80693 -160.091559,91.17463 30.32562,134.26979 1577.73888,357.07342 82.80276,57.24439 82.80276,57.24439"
       inkscape:connector-curvature="0"
       sodipodi:nodetypes="cssc"
       inkscape:export-filename="C:\Users\Nyan Kai\Pictures\Vector Images\Exports\EnemyMainCell.png"
       inkscape:export-xdpi="95.704697"
       inkscape:export-ydpi="95.704697" />
    <path
       style="fill:#ffc1c4;fill-opacity:1;fill-rule:evenodd;stroke:none;stroke-width:12.5;stroke-linecap:butt;stroke-linejoin:miter;stroke-miterlimit:4;stroke-dasharray:none;stroke-opacity:1"
       d="m 147.16203,234.54625 14.40864,0 c 1.66526,0.16849 3.24977,1.02871 4.29818,2.33344 1.04842,1.30473 1.54731,3.03728 1.35332,4.69977 -0.15315,1.31248 -0.72968,2.57221 -1.62287,3.54599 -0.89319,0.97379 -2.09855,1.65674 -3.39295,1.92242 l -14.62055,0 c -1.70896,0.002 -3.40631,-0.73286 -4.57448,-1.98023 -1.16817,-1.24737 -1.79017,-2.9892 -1.67633,-4.69437 0.0999,-1.4959 0.75885,-2.94795 1.81896,-4.00807 1.06012,-1.06011 2.51218,-1.71909 4.00808,-1.81895 z"
       id="path4459"
       inkscape:path-effect="#path-effect4461"
       inkscape:original-d="m 147.16203,234.54625 14.40864,0 c 0,0 7.77041,0.67645 5.6515,7.03321 -2.11892,6.35675 -5.01582,5.46841 -5.01582,5.46841 l -14.62055,0 c 0,0 -10.48865,-1.1654 -6.25081,-6.6746 4.23784,-5.50918 5.82704,-5.82702 5.82704,-5.82702 z"
       inkscape:connector-curvature="0"
       sodipodi:nodetypes="ccsccsc" />
    <path
       style="fill:#34243b;fill-opacity:1;fill-rule:evenodd;stroke:none;stroke-width:1px;stroke-linecap:butt;stroke-linejoin:miter;stroke-opacity:1"
       d="m 320.08963,627.40607 c 2.4878,-3.78146 4.72691,-7.73169 6.70693,-11.81267 0.8339,-1.3347 2.2411,-2.34635 3.83896,-2.74738 1.59656,-0.4007 3.39188,-0.18964 4.84373,0.63972 1.14885,0.65628 2.07632,1.68868 2.59295,2.93334 0.5163,1.24386 0.61195,2.67906 0.2607,4.02942 -2.22112,4.63868 -4.74344,9.13518 -7.55611,13.4498 -0.98937,1.52117 -2.61182,2.58037 -4.33654,2.84489 -1.72697,0.26487 -3.49418,-0.27086 -4.80088,-1.37576 -1.14263,-0.96618 -1.92892,-2.35359 -2.20172,-3.79098 -0.27323,-1.43963 -0.0368,-2.94249 0.65198,-4.17038 z m 10.95822,-21.84397 c 1.55864,-4.26592 2.84989,-8.63215 3.86338,-13.06066 0.51319,-1.49053 1.65828,-2.79378 3.12588,-3.54397 1.46641,-0.74958 3.26366,-0.94702 4.86489,-0.46484 1.26712,0.38156 2.40305,1.1794 3.18665,2.27623 0.78308,1.09608 1.19963,2.473 1.16197,3.86735 -1.11815,5.01808 -2.55673,9.96449 -4.30491,14.7995 -0.61401,1.70381 -1.94891,3.10377 -3.56569,3.75721 -1.61873,0.65422 -3.46253,0.54274 -4.98968,-0.22914 -1.33573,-0.67513 -2.42208,-1.84305 -3.01936,-3.18157 -0.59816,-1.34046 -0.71333,-2.86212 -0.32313,-4.22011 z m 5.75787,-23.79489 c 0.5622,-4.50386 0.83833,-9.03956 0.81803,-13.56908 0.16056,-1.5632 0.97707,-3.08885 2.23282,-4.15263 1.25465,-1.06284 2.95779,-1.66758 4.62586,-1.56576 1.32021,0.0806 2.60792,0.59668 3.62107,1.48615 1.01241,0.88882 1.73164,2.13603 2.01208,3.5042 0.0531,5.14734 -0.23351,10.2935 -0.84892,15.39876 -0.2149,1.79866 -1.2006,3.46264 -2.62914,4.46245 -1.43018,1.00096 -3.25228,1.30647 -4.91404,0.8972 -1.45356,-0.358 -2.77442,-1.25229 -3.65675,-2.42266 -0.8836,-1.17204 -1.33673,-2.62871 -1.26101,-4.03863 z m 0.19498,-24.41471 c -0.49664,-4.49824 -1.29495,-8.96652 -2.37802,-13.36922 -0.21086,-1.55885 0.22535,-3.23563 1.19806,-4.56483 0.97193,-1.32812 2.48744,-2.31312 4.13394,-2.60308 1.30288,-0.22944 2.67589,-0.0281 3.86864,0.59923 1.19196,0.62694 2.18269,1.67005 2.7754,2.93363 1.25563,4.98881 2.18701,10.06187 2.77647,15.18199 0.0507,0.43618 0.0556,0.87668 0.017,1.31239 -0.1217,1.36193 -0.66549,2.66116 -1.54277,3.64729 -1.16115,1.30524 -2.86362,2.02014 -4.57396,2.00324 -1.49594,-0.0148 -2.98616,-0.58129 -4.11389,-1.51426 -0.92374,-0.7642 -1.61206,-1.77888 -1.97082,-2.87668 -0.08,-0.24571 -0.14372,-0.49615 -0.19004,-0.7497 z m -5.51737,-23.79693 c -1.52807,-4.27489 -3.32735,-8.45568 -5.38091,-12.50676 -0.55893,-1.47353 -0.51257,-3.20742 0.13541,-4.72275 0.64744,-1.51408 1.90233,-2.81563 3.44138,-3.46946 1.21791,-0.51741 2.60131,-0.63094 3.9052,-0.28922 1.30301,0.34149 2.50398,1.13338 3.36697,2.2293 2.3506,4.57262 4.40833,9.29553 6.15551,14.13153 0.61726,1.70289 0.48582,3.63298 -0.33975,5.16897 -0.82656,1.53784 -2.31572,2.63033 -3.98341,3.01263 -1.45863,0.33437 -3.0404,0.13047 -4.35501,-0.51685 -1.31653,-0.64827 -2.37749,-1.7443 -2.94539,-3.03739 z M 320.69122,511.5887 c -2.44979,-3.8206 -5.14031,-7.48297 -8.05465,-10.95148 -0.87699,-1.30427 -1.22574,-2.99946 -0.94124,-4.62069 0.28426,-1.61979 1.20644,-3.17436 2.55376,-4.16341 1.06634,-0.78278 2.38635,-1.21004 3.73418,-1.17469 1.34685,0.0353 2.69765,0.53368 3.7886,1.40575 3.33423,3.92209 6.40697,8.06051 9.20053,12.37805 0.98569,1.51992 1.29279,3.42952 0.83462,5.11193 -0.45871,1.68435 -1.66358,3.08483 -3.20249,3.83341 -1.34611,0.6548 -2.93336,0.81258 -4.36021,0.47772 -1.4289,-0.33533 -2.70915,-1.16473 -3.5531,-2.29659 z m -15.4731,-18.89119 c -3.25975,-3.1402 -6.73156,-6.0655 -10.37983,-8.75888 -1.15902,-1.06401 -1.89569,-2.63243 -1.99745,-4.2765 -0.10169,-1.64274 0.43414,-3.36906 1.515,-4.6446 0.85529,-1.00934 2.03987,-1.73225 3.35811,-2.01236 1.31737,-0.27992 2.74601,-0.11121 4.00948,0.48142 4.15452,3.03316 8.11376,6.33766 11.84055,9.89574 0.68889,0.65632 1.22406,1.46436 1.56722,2.33799 0.30879,0.78764 0.46002,1.62392 0.43285,2.44904 -0.0575,1.74615 -0.90866,3.38498 -2.23414,4.46634 -1.15932,0.94581 -2.66727,1.46386 -4.13112,1.46819 -0.72649,0.002 -1.44503,-0.12187 -2.11461,-0.35556 -0.68325,-0.23898 -1.31867,-0.59349 -1.86606,-1.05082 z m -19.46123,-14.77193 c -3.90798,-2.31122 -7.96395,-4.37692 -12.13233,-6.18008 -1.37159,-0.77606 -2.44405,-2.13918 -2.91419,-3.71868 -0.46976,-1.57821 -0.33658,-3.38122 0.42911,-4.86773 0.60593,-1.17633 1.59727,-2.14784 2.81848,-2.7184 1.22039,-0.57019 2.65018,-0.72875 4.01437,-0.43749 4.73046,2.01431 9.33161,4.33148 13.76626,6.93377 1.56312,0.91504 2.69568,2.48334 3.04259,4.19229 0.34733,1.711 -0.0995,3.50315 -1.13762,4.86326 -0.908,1.1896 -2.25479,2.04395 -3.67967,2.38644 -1.42695,0.34299 -2.94361,0.17819 -4.207,-0.45338 z m -22.33951,-9.99663 c -4.32553,-1.37198 -8.73499,-2.46782 -13.1928,-3.27049 -1.50798,-0.44181 -2.85998,-1.52186 -3.67806,-2.9501 -0.81735,-1.42698 -1.1028,-3.21193 -0.69967,-4.83405 0.31906,-1.28384 1.06057,-2.45658 2.11948,-3.2914 1.05814,-0.83421 2.41553,-1.31487 3.81217,-1.34195 5.07233,0.88356 10.0813,2.10152 14.98974,3.63612 1.72969,0.53877 3.18655,1.81102 3.90958,3.3977 0.72386,1.58851 0.69237,3.43563 -0.0127,4.99492 -0.6167,1.36393 -1.73651,2.49975 -3.04777,3.15423 -1.31313,0.65542 -2.82768,0.83592 -4.20001,0.50502 z"
       id="path4531"
       inkscape:path-effect="#path-effect4533;#path-effect4535"
       inkscape:original-d="m 321.97253,635.62969 c 0,0 55.66931,-41.37143 21.32704,-78.15812 -10.418,-11.15953 -86.91531,-136.8001 -99.85281,-100.08921"
       inkscape:connector-curvature="0"
       sodipodi:nodetypes="csc"
       inkscape:export-filename="C:\Users\Nyan Kai\Pictures\Vector Images\Exports\EnemyMainCell.png"
       inkscape:export-xdpi="95.704697"
       inkscape:export-ydpi="95.704697" />
    <path
       sodipodi:type="star"
       style="fill:#ffc1c4;fill-opacity:1;stroke:none;stroke-width:12.5;stroke-linecap:round;stroke-linejoin:round;stroke-miterlimit:4;stroke-dasharray:none;stroke-dashoffset:0;stroke-opacity:1"
       id="path4545"
       sodipodi:sides="7"
       sodipodi:cx="388.95384"
       sodipodi:cy="582.19432"
       sodipodi:r1="11.147268"
       sodipodi:r2="13.951828"
       sodipodi:arg1="0.83620187"
       sodipodi:arg2="1.2379044"
       inkscape:flatsided="false"
       inkscape:rounded="0.1"
       inkscape:randomized="0"
       d="m 396.42569,590.46675 c -0.40539,0.4024 -2.36469,4.75245 -2.91272,4.91348 -0.64599,0.18981 -5.69937,-2.10853 -6.36815,-2.18639 -0.56736,-0.0661 -5.18997,1.11431 -5.65756,0.78625 -0.55117,-0.38671 -1.90498,-5.77059 -2.26109,-6.34201 -0.3021,-0.48477 -4.1071,-3.36293 -4.14214,-3.93304 -0.0413,-0.67204 3.32389,-5.08728 3.54862,-5.72198 0.19064,-0.53843 0.0685,-5.3078 0.49239,-5.69066 0.49966,-0.4513 6.0498,-0.57315 6.68614,-0.79317 0.53983,-0.18666 4.19252,-3.25581 4.75614,-3.16311 0.66438,0.10927 4.2201,4.37258 4.78887,4.7329 0.48252,0.30569 5.15949,1.24789 5.43842,1.74634 0.32881,0.58756 -0.78743,6.02566 -0.71452,6.69501 0.0618,0.56783 2.24125,4.81189 2.02546,5.34075 -0.25437,0.62341 -5.20201,3.1413 -5.67986,3.61563 z"
       inkscape:export-filename="C:\Users\Nyan Kai\Pictures\Vector Images\Exports\EnemyMainCell.png"
       inkscape:export-xdpi="95.704697"
       inkscape:export-ydpi="95.704697" />
    <path
       sodipodi:type="star"
       style="fill:#ffc1c4;fill-opacity:1;stroke:none;stroke-width:12.5;stroke-linecap:round;stroke-linejoin:round;stroke-miterlimit:4;stroke-dasharray:none;stroke-dashoffset:0;stroke-opacity:1"
       id="path4547"
       sodipodi:sides="7"
       sodipodi:cx="427.44947"
       sodipodi:cy="555.76668"
       sodipodi:r1="24.950846"
       sodipodi:r2="19.935303"
       sodipodi:arg1="1.0471976"
       sodipodi:arg2="1.4959965"
       inkscape:flatsided="false"
       inkscape:rounded="0.1"
       inkscape:randomized="0"
       d="m 439.92488,577.37473 c -0.96309,0.55604 -9.87668,-1.81161 -10.98565,-1.72851 -1.10897,0.0831 -9.57013,3.75282 -10.60534,3.34653 -1.0352,-0.40629 -4.74163,-8.85143 -5.49804,-9.66664 -0.75641,-0.81521 -8.90095,-5.14238 -9.22874,-6.20506 -0.32779,-1.06267 3.96396,-9.22593 4.12971,-10.32559 0.16575,-1.09966 -1.52917,-10.16527 -0.90271,-11.08411 0.62645,-0.91884 9.68461,-2.65313 10.6477,-3.20917 0.96309,-0.55604 6.9941,-7.53349 8.10308,-7.6166 1.10897,-0.0831 8.11255,5.91754 9.14776,6.32383 1.0352,0.40629 10.25067,0.77116 11.00708,1.58637 0.7564,0.81521 0.43157,10.03217 0.75937,11.09485 0.32779,1.06267 5.78828,8.4951 5.62253,9.59476 -0.16575,1.09966 -7.57439,6.59238 -8.20085,7.51123 -0.62645,0.91884 -3.03281,9.82207 -3.9959,10.37811 z"
       inkscape:transform-center-x="-0.40784093"
       inkscape:transform-center-y="-0.81221221"
       inkscape:export-filename="C:\Users\Nyan Kai\Pictures\Vector Images\Exports\EnemyMainCell.png"
       inkscape:export-xdpi="95.704697"
       inkscape:export-ydpi="95.704697" />
  </g>
</svg>
