<?xml version="1.0" encoding="UTF-8" standalone="no"?>
<!-- Created with Inkscape (http://www.inkscape.org/) -->

<svg
   xmlns:dc="http://purl.org/dc/elements/1.1/"
   xmlns:cc="http://creativecommons.org/ns#"
   xmlns:rdf="http://www.w3.org/1999/02/22-rdf-syntax-ns#"
   xmlns:svg="http://www.w3.org/2000/svg"
   xmlns="http://www.w3.org/2000/svg"
   xmlns:sodipodi="http://sodipodi.sourceforge.net/DTD/sodipodi-0.dtd"
   xmlns:inkscape="http://www.inkscape.org/namespaces/inkscape"
   width="210mm"
   height="293mm"
   viewBox="0 0 744.09449 1038.189"
   id="svg2"
   version="1.1"
   inkscape:version="0.91 r13725"
   inkscape:export-filename="C:\Users\Nyan Kai\Pictures\Vector Images\Exports\PlayerSquadCaptain.png"
   inkscape:export-xdpi="104.86642"
   inkscape:export-ydpi="104.86642"
   sodipodi:docname="PlayerSquadCaptain.svg">
  <defs
     id="defs4">
    <inkscape:path-effect
       effect="spiro"
       id="path-effect4292"
       is_visible="true" />
    <inkscape:path-effect
       effect="spiro"
       id="path-effect4251"
       is_visible="true" />
    <inkscape:path-effect
       effect="spiro"
       id="path-effect4247"
       is_visible="true" />
    <inkscape:path-effect
       effect="spiro"
       id="path-effect4199"
       is_visible="true" />
    <inkscape:path-effect
       effect="spiro"
       id="path-effect4712"
       is_visible="true" />
    <inkscape:path-effect
       effect="spiro"
       id="path-effect4708"
       is_visible="true" />
    <inkscape:path-effect
       effect="spiro"
       id="path-effect4704"
       is_visible="true" />
    <inkscape:path-effect
       effect="spiro"
       id="path-effect4168"
       is_visible="true" />
    <inkscape:path-effect
       effect="spiro"
       id="path-effect4160"
       is_visible="true" />
    <inkscape:path-effect
       effect="spiro"
       id="path-effect4152"
       is_visible="true" />
    <inkscape:path-effect
       effect="spiro"
       id="path-effect4140"
       is_visible="true" />
    <inkscape:path-effect
       effect="spiro"
       id="path-effect4704-8"
       is_visible="true" />
    <inkscape:path-effect
       effect="spiro"
       id="path-effect4712-8"
       is_visible="true" />
    <inkscape:path-effect
       effect="spiro"
       id="path-effect4704-5"
       is_visible="true" />
    <inkscape:path-effect
       effect="spiro"
       id="path-effect4199-3"
       is_visible="true" />
    <inkscape:path-effect
       effect="spiro"
       id="path-effect4199-3-1"
       is_visible="true" />
    <inkscape:path-effect
       effect="spiro"
       id="path-effect4712-4"
       is_visible="true" />
  </defs>
  <sodipodi:namedview
     id="base"
     pagecolor="#000000"
     bordercolor="#666666"
     borderopacity="1.0"
     inkscape:pageopacity="0"
     inkscape:pageshadow="2"
     inkscape:zoom="0.73013534"
     inkscape:cx="130.31835"
     inkscape:cy="347.59577"
     inkscape:document-units="px"
     inkscape:current-layer="layer1"
     showgrid="false"
     inkscape:window-width="1366"
     inkscape:window-height="705"
     inkscape:window-x="-8"
     inkscape:window-y="-8"
     inkscape:window-maximized="1" />
  <metadata
     id="metadata7">
    <rdf:RDF>
      <cc:Work
         rdf:about="">
        <dc:format>image/svg+xml</dc:format>
        <dc:type
           rdf:resource="http://purl.org/dc/dcmitype/StillImage" />
        <dc:title />
      </cc:Work>
    </rdf:RDF>
  </metadata>
  <g
     inkscape:label="Body"
     inkscape:groupmode="layer"
     id="layer1"
     transform="translate(0,-14.173228)"
     style="display:inline">
    <path
       sodipodi:type="star"
       style="fill:#5ed2ed;fill-opacity:1;stroke:#cbf5ff;stroke-width:27.34847832;stroke-linecap:round;stroke-linejoin:round;stroke-miterlimit:4;stroke-dasharray:none;stroke-dashoffset:0;stroke-opacity:1"
       id="path4700"
       sodipodi:sides="7"
       sodipodi:cx="373.75644"
       sodipodi:cy="533.1438"
       sodipodi:r1="228.76093"
       sodipodi:r2="128.93599"
       sodipodi:arg1="-1.8651074"
       sodipodi:arg2="-1.4163084"
       inkscape:flatsided="true"
       inkscape:rounded="0.1"
       inkscape:randomized="0"
       d="m 307.39733,314.21909 c 18.99757,-5.75843 179.8002,19.28316 196.14711,30.54574 16.34692,11.26258 97.02741,152.59632 98.4141,172.39895 1.3867,19.80264 -58.809,171.00133 -73.42674,184.43223 -14.61773,13.4309 -170.36103,60.63885 -189.97574,57.58428 -19.61471,-3.05458 -153.62773,-95.38592 -163.46914,-112.62581 -9.84141,-17.2399 -21.20961,-179.58314 -13.86694,-198.02637 7.34267,-18.44322 127.17977,-128.5506 146.17735,-134.30902 z"
       inkscape:transform-center-x="-1.6933978"
       inkscape:transform-center-y="-21.919337"
       transform="matrix(-0.89513744,0.27090679,-0.25881743,-0.85519148,851.59061,871.03332)"
       inkscape:export-filename="C:\Users\Nyan Kai\Pictures\Vector Images\Exports\PlayerSquadCell_TypeB.png"
       inkscape:export-xdpi="100.58231"
       inkscape:export-ydpi="100.58231" />
    <path
       sodipodi:type="star"
       style="fill:#264162;fill-opacity:1;stroke:#cbf5ff;stroke-width:12.5;stroke-linecap:round;stroke-linejoin:round;stroke-miterlimit:4;stroke-dasharray:none;stroke-dashoffset:0;stroke-opacity:1"
       id="path4282"
       sodipodi:sides="4"
       sodipodi:cx="393.07782"
       sodipodi:cy="632.57703"
       sodipodi:r1="45.145191"
       sodipodi:r2="31.92247"
       sodipodi:arg1="0.38895688"
       sodipodi:arg2="1.174355"
       inkscape:flatsided="true"
       inkscape:rounded="0.1"
       inkscape:randomized="0"
       d="m 434.8509,649.69714 c -2.42115,5.90761 -52.98559,27.07411 -58.89319,24.65296 -5.90761,-2.42115 -27.07412,-52.98558 -24.65297,-58.89319 2.42115,-5.9076 52.98559,-27.07411 58.89319,-24.65296 5.90761,2.42115 27.07412,52.98558 24.65297,58.89319 z" />
    <path
       sodipodi:type="star"
       style="fill:#264162;fill-opacity:1;stroke:#cbf5ff;stroke-width:12.5;stroke-linecap:round;stroke-linejoin:round;stroke-miterlimit:4;stroke-dasharray:none;stroke-dashoffset:0;stroke-opacity:1"
       id="path4284"
       sodipodi:sides="4"
       sodipodi:cx="306.79245"
       sodipodi:cy="626.41381"
       sodipodi:r1="19.284271"
       sodipodi:r2="13.636039"
       sodipodi:arg1="1.2827409"
       sodipodi:arg2="2.068139"
       inkscape:flatsided="true"
       inkscape:rounded="0.1"
       inkscape:randomized="0"
       d="m 312.27089,644.90354 c -2.61485,0.77477 -23.1934,-10.39644 -23.96816,-13.01129 -0.77477,-2.61484 10.39644,-23.19339 13.01128,-23.96815 2.61485,-0.77477 23.1934,10.39644 23.96816,13.01128 0.77477,2.61484 -10.39644,23.19339 -13.01128,23.96816 z" />
    <path
       style="fill:none;fill-rule:evenodd;stroke:#cbf5ff;stroke-width:12.5;stroke-linecap:round;stroke-linejoin:bevel;stroke-miterlimit:4;stroke-dasharray:none;stroke-opacity:1"
       d="m 421.68779,476.01881 c 7.07351,-1.205 14.49867,-0.26063 21.04535,2.67665 6.54668,2.93728 12.18878,7.85577 15.99158,13.94061 3.8028,6.08485 5.75113,13.3118 5.52223,20.48356 -0.22891,7.17177 -2.63414,14.25976 -6.81723,20.08972 -4.18309,5.82995 -10.12737,10.37863 -16.84803,12.89245 -6.72066,2.51381 -14.19093,2.98276 -21.17321,1.32913 -6.98227,-1.65362 -13.44871,-5.42323 -18.32804,-10.68429 -4.87932,-5.26107 -8.15207,-11.99263 -9.27605,-19.07947 -1.23241,-7.77049 0.072,-15.68377 0.82851,-23.51493 0.75646,-7.83116 0.8968,-16.05986 -2.43879,-23.18539 -3.49468,-7.4654 -10.82825,-13.00421 -18.96486,-14.32354 -8.13661,-1.31934 -16.84462,1.61835 -22.51923,7.59697 l 6.2422,8.04639 -16.89443,13.09619 -12.97072,-16.84363 16.81868,-13.02082 6.74379,8.75196"
       id="path4290"
       inkscape:path-effect="#path-effect4292"
       inkscape:original-d="m 421.68779,476.01881 c 0,0 -17.28708,85.75698 -29.8834,41.64836 -12.5963,-44.1086 322111.49561,74693.07083 -1.61028,-46.70032 -47.88876,-11.11159 -41.48409,-6.72657 -41.48409,-6.72657 l 6.2422,8.04639 -16.89443,13.09619 -12.97072,-16.84363 16.81868,-13.02082 6.74379,8.75196"
       inkscape:connector-curvature="0"
       sodipodi:nodetypes="csscccccc" />
  </g>
  <g
     inkscape:groupmode="layer"
     id="layer2"
     inkscape:label="Lengthy Bits">
    <path
       transform="translate(0,-14.173228)"
       style="fill:none;fill-rule:evenodd;stroke:#cbf5ff;stroke-width:12.5;stroke-linecap:round;stroke-linejoin:round;stroke-opacity:1;stroke-miterlimit:4;stroke-dasharray:none"
       d="m 226.6703,441.51655 -9.58726,134.9065 69.16526,6.16324"
       id="path4197"
       inkscape:path-effect="#path-effect4199"
       inkscape:original-d="m 226.6703,441.51655 -9.58726,134.9065 69.16526,6.16324"
       inkscape:connector-curvature="0" />
    <path
       transform="translate(0,-14.173228)"
       style="fill:none;fill-rule:evenodd;stroke:#cbf5ff;stroke-width:12.5;stroke-linecap:round;stroke-linejoin:round;stroke-opacity:1;stroke-miterlimit:4;stroke-dasharray:none"
       d="m 245.0622,491.27599 -4.10882,66.42605 69.16526,6.16324"
       id="path4197-9"
       inkscape:path-effect="#path-effect4199-3"
       inkscape:original-d="m 245.0622,491.27599 -4.10882,66.42605 69.16526,6.16324"
       inkscape:connector-curvature="0"
       sodipodi:nodetypes="ccc" />
    <path
       transform="translate(0,-14.173228)"
       style="fill:none;fill-rule:evenodd;stroke:#cbf5ff;stroke-width:12.5;stroke-linecap:round;stroke-linejoin:round;stroke-opacity:1;stroke-miterlimit:4;stroke-dasharray:none"
       d="m 269.02813,454.29425 -5.47842,84.23097 22.59855,1.3696"
       id="path4197-9-6"
       inkscape:path-effect="#path-effect4199-3-1"
       inkscape:original-d="m 269.02813,454.29425 -5.47842,84.23097 22.59855,1.3696"
       inkscape:connector-curvature="0"
       sodipodi:nodetypes="ccc" />
    <path
       transform="translate(0,-14.173228)"
       style="fill:none;fill-rule:evenodd;stroke:#cbf5ff;stroke-width:12.5;stroke-linecap:round;stroke-linejoin:round;stroke-opacity:1;stroke-miterlimit:4;stroke-dasharray:none"
       d="m 244.47522,518.21466 19.17453,1.36961 0,0"
       id="path4245"
       inkscape:path-effect="#path-effect4247"
       inkscape:original-d="m 244.47522,518.21466 19.17453,1.36961 0,0"
       inkscape:connector-curvature="0" />
    <path
       transform="translate(0,-14.173228)"
       style="fill:none;fill-rule:evenodd;stroke:#cbf5ff;stroke-width:12.5;stroke-linecap:round;stroke-linejoin:round;stroke-opacity:1;stroke-miterlimit:4;stroke-dasharray:none"
       d="m 264.33456,579.84707 2.05441,-19.85933"
       id="path4249"
       inkscape:path-effect="#path-effect4251"
       inkscape:original-d="m 264.33456,579.84707 2.05441,-19.85933"
       inkscape:connector-curvature="0" />
  </g>
  <g
     inkscape:groupmode="layer"
     id="layer3"
     inkscape:label="Squiggly Bits">
    <path
       style="fill:none;fill-rule:evenodd;stroke:#4f97a8;stroke-width:14.20697212;stroke-linecap:round;stroke-linejoin:round;stroke-miterlimit:4;stroke-dasharray:none;stroke-opacity:1"
       d="m 452.90497,357.53271 -34.033,40.28357 -23.01048,-7.23068 34.51695,-39.95419 -24.8322,-6.95448 -34.08161,41.57837 -23.69823,-7.22708 35.15987,-42.9485 -24.24435,-6.04518 -35.64046,43.28505"
       id="path4702"
       inkscape:path-effect="#path-effect4704"
       inkscape:original-d="m 452.90497,357.53271 -34.033,40.28357 -23.01048,-7.23068 34.51695,-39.95419 -24.8322,-6.95448 c -11.0774,12.87792 -110.26082,13.49412 -34.08161,41.57837 l -23.69823,-7.22708 35.15987,-42.9485 -24.24435,-6.04518 -35.64046,43.28505"
       inkscape:connector-curvature="0"
       inkscape:export-filename="C:\Users\Nyan Kai\Pictures\Vector Images\Exports\PlayerSquadCell_TypeB.png"
       inkscape:export-xdpi="100.58231"
       inkscape:export-ydpi="100.58231"
       sodipodi:nodetypes="cccccccccc" />
  </g>
  <g
     inkscape:groupmode="layer"
     id="layer4"
     inkscape:label="Tablet Bits">
    <path
       style="fill:#27798c;fill-opacity:1;fill-rule:evenodd;stroke:#cbf5ff;stroke-width:12.5;stroke-linecap:butt;stroke-linejoin:miter;stroke-miterlimit:4;stroke-dasharray:none;stroke-opacity:1"
       d="m 493.92109,401.38409 21.90864,23.49689 c 2.06534,2.02343 3.56928,4.61413 4.3022,7.41104 0.73292,2.79691 0.69279,5.79224 -0.1148,8.5685 -0.80759,2.77627 -2.38039,5.32576 -4.49919,7.29313 -2.11881,1.96737 -4.77772,3.34714 -7.60615,3.94702 -5.12797,1.08758 -10.75146,-0.52914 -14.51886,-4.17408 l -23.67549,-25.39182 c -2.22426,-2.86834 -3.43558,-6.50649 -3.37465,-10.13567 0.0609,-3.62918 1.39367,-7.22463 3.71295,-10.01669 2.86602,-3.45025 7.22959,-5.61065 11.71101,-5.79812 4.48142,-0.18746 9.01018,1.60096 12.15434,4.7998 z"
       id="path4710-4"
       inkscape:path-effect="#path-effect4712-8"
       inkscape:original-d="m 493.92109,401.38409 21.90864,23.49689 c 0,0 2.37477,31.80544 -7.91794,27.21969 -16.96681,-7.5593 -14.51886,-4.17408 -14.51886,-4.17408 l -23.67549,-25.39182 c 0,0 -15.29189,-23.99869 0.3383,-20.15236 15.63018,3.84633 23.86535,-0.99832 23.86535,-0.99832 z"
       inkscape:connector-curvature="0"
       sodipodi:nodetypes="ccsccsc"
       inkscape:export-filename="C:\Users\Nyan Kai\Pictures\Vector Images\Exports\PlayerSquadCell_TypeB.png"
       inkscape:export-xdpi="100.58231"
       inkscape:export-ydpi="100.58231" />
    <path
       style="fill:#27798c;fill-opacity:1;fill-rule:evenodd;stroke:#cbf5ff;stroke-width:12.5;stroke-linecap:butt;stroke-linejoin:miter;stroke-miterlimit:4;stroke-dasharray:none;stroke-opacity:1"
       d="m 463.8076,576.20668 26.27923,-18.4796 c 2.28753,-1.76836 5.05999,-2.90283 7.93098,-3.24529 2.87099,-0.34246 5.83251,0.10803 8.47181,1.2887 2.6393,1.18066 4.94902,3.08821 6.60726,5.45678 1.65824,2.36856 2.66037,5.19156 2.86672,8.07553 0.37412,5.22866 -1.99846,10.57734 -6.12559,13.80933 l -28.39852,19.9699 c -3.14625,1.80992 -6.91614,2.5109 -10.50268,1.95289 -3.58655,-0.55801 -6.96527,-2.3712 -9.41292,-5.05144 -3.02465,-3.31207 -4.56627,-7.93067 -4.13744,-12.39546 0.42883,-4.4648 2.82138,-8.70553 6.42115,-11.38134 z"
       id="path4710-6"
       inkscape:path-effect="#path-effect4712-4"
       inkscape:original-d="m 463.8076,576.20668 26.27923,-18.4796 c 0,0 31.83063,2.00909 25.87677,11.57572 -9.81452,15.76994 -6.12559,13.80933 -6.12559,13.80933 l -28.39852,19.9699 c 0,0 -25.86894,11.85654 -19.9156,-3.09855 5.95333,-14.9551 2.28371,-23.7768 2.28371,-23.7768 z"
       inkscape:connector-curvature="0"
       sodipodi:nodetypes="ccsccsc"
       inkscape:export-filename="C:\Users\Nyan Kai\Pictures\Vector Images\Exports\PlayerSquadCell_TypeB.png"
       inkscape:export-xdpi="100.58231"
       inkscape:export-ydpi="100.58231"
       inkscape:transform-center-x="-0.00037228076"
       inkscape:transform-center-y="0.68342097" />
  </g>
</svg>
